<svg width="26" height="26" viewBox="0 0 26 26" fill="none" xmlns="http://www.w3.org/2000/svg">
<path d="M24.9059 2.35164e-05C24.7738 0.016058 24.6462 0.0585719 24.5309 0.125024L0.530914 13.125C0.360778 13.219 0.222064 13.361 0.132065 13.5332C0.0420666 13.7055 0.00476537 13.9004 0.024812 14.0938C0.0448586 14.2871 0.121366 14.4702 0.244796 14.6204C0.368226 14.7705 0.533118 14.881 0.718914 14.938L7.09391 16.844C7.24291 18.023 7.90691 23.129 8.03091 24.125C8.15491 25.117 8.82891 25.289 9.49991 24.375C9.95391 23.756 12.6239 20 12.6249 20L18.3129 25.688C18.4354 25.8109 18.588 25.8994 18.7555 25.9447C18.923 25.9899 19.0994 25.9904 19.2671 25.9461C19.4348 25.9017 19.5879 25.8141 19.7111 25.6919C19.8343 25.5697 19.9232 25.4174 19.9689 25.25L25.9689 1.25002C26.0124 1.094 26.017 0.92968 25.9823 0.771473C25.9475 0.613266 25.8744 0.466007 25.7695 0.342611C25.6646 0.219215 25.531 0.123452 25.3804 0.0637222C25.2298 0.00399229 25.0669 -0.0178801 24.9059 2.35164e-05ZM23.4699 2.93802L18.4379 23.063L12.7819 17.406L20.9999 6.00002L8.21891 15.125L3.56291 13.75L23.4679 2.93702L23.4699 2.93802Z" fill="white"/>
</svg>
